<svg width="94" height="59" viewBox="0 0 94 59" fill="none" xmlns="http://www.w3.org/2000/svg">
<g clip-path="url(#clip0_2103_249)">
<path d="M0.00341797 59H93.9966V0H0.00341797V59Z" fill="black"/>
<path d="M1.09155 57.9419H92.9946V1.07397H1.09155V57.9419Z" fill="white"/>
<path d="M21.3634 32.5745L23.1414 34.5897L24.9785 32.5879H26.4505V33.2065L24.1482 35.7234L26.4505 38.4144V32.5879H30.606C31.392 32.5879 32.5444 32.9471 32.5444 34.5581C32.5444 36.818 31.028 36.8448 30.1976 36.8448H28.0397V39.0329H24.9637L23.0846 36.8887L21.1598 39.0171H15.0437V32.5733H21.3634V32.5745V32.5745ZM40.1904 32.5745H45.4317V33.9639H41.7944V35.1706H45.3306V36.3931H41.7944V37.6692H45.4317V39.0183H40.1904V32.5745V32.5745ZM34.9072 39.0342H33.3032V32.5891H37.4723C38.2607 32.5891 39.3971 32.935 39.3971 34.3146C39.3971 35.0939 39.1639 35.6674 38.2891 36.0996C39.0467 36.1861 39.3391 36.6756 39.3391 37.7106L39.3971 39.0342H37.8363L37.7931 37.853C37.7795 37.3075 37.5599 36.7608 37.0071 36.7608H34.9072V39.0342V39.0342ZM55.4973 35.0865C57.4702 35.184 57.6331 36.1569 57.6331 37.1919C57.6331 38.3998 56.6275 39.0476 55.5775 39.0476H52.2104V37.668H54.8348C55.2802 37.668 55.9427 37.668 55.9427 37.047C55.9427 36.7523 55.8255 36.566 55.3517 36.5149C54.9836 36.4795 54.6145 36.4544 54.245 36.4394C52.4646 36.3931 52.0512 35.52 52.0512 34.4558C52.0512 33.2479 52.9112 32.5867 53.9612 32.5867H57.3283V33.9687H54.8644C54.3042 33.976 53.6984 33.903 53.6984 34.5301C53.6984 34.9246 53.9982 35.0037 54.3758 35.0415C54.5066 35.0427 55.3813 35.0865 55.4973 35.0865V35.0865ZM49.491 35.0865C51.4627 35.184 51.6268 36.1569 51.6268 37.1919C51.6268 38.3998 50.62 39.0476 49.5712 39.0476H46.2029V37.668H48.8272C49.2714 37.668 49.9364 37.668 49.9364 37.047C49.9364 36.7523 49.8192 36.566 49.3454 36.5149C49.1332 36.4856 48.3534 36.4418 48.2387 36.4394C46.4583 36.3931 46.045 35.52 46.045 34.4558C46.045 33.2479 46.9049 32.5867 47.9537 32.5867H51.322V33.9687H48.8581C48.2967 33.976 47.6921 33.903 47.6921 34.5301C47.6921 34.9246 47.9907 35.0037 48.3707 35.0415C48.5003 35.0427 49.3751 35.0865 49.491 35.0865V35.0865ZM28.3605 27.956H26.7565V21.511H30.9256C31.7128 21.511 32.8516 21.8568 32.8516 23.2364C32.8516 24.0145 32.6184 24.5904 31.7436 25.0215C32.5012 25.1079 32.7936 25.5974 32.7936 26.6324L32.8516 27.956H31.292L31.2476 26.7761C31.2328 26.2294 31.0157 25.6839 30.4604 25.6839H28.3617V27.956H28.3605V27.956ZM33.6684 27.956H35.2711V21.5037H33.6684V27.956ZM20.5972 21.511H25.8373V22.8991H22.2036V24.1082H25.7373V25.332H22.2036V26.6044H25.8373V27.956H20.5972V21.511V21.511ZM8.89432 27.956H12.1233V23.1731L14.2652 27.956H15.7236L17.9161 23.2522V27.956H19.5188V21.511H16.9611L14.9931 25.8348L13.0326 21.511H10.518V27.7185L7.71848 21.511H5.59876L2.74121 27.956H4.43279L5.05834 26.5179H8.25767L8.89432 27.956V27.956ZM44.4977 26.5216H41.2996L40.6729 27.9596H38.5581C36.7801 27.9596 35.9917 26.4887 36.0299 24.7049C36.0842 22.0577 37.6697 21.5073 38.3989 21.5073H40.4915V22.91H39.5007C38.4359 22.91 37.6056 23.0196 37.6056 24.5295V24.9971C37.613 26.1332 38.2163 26.4023 38.6025 26.4814C38.6975 26.5033 38.8727 26.5119 38.9369 26.507L39.6303 26.5033L41.8388 21.511H43.961L46.6939 27.5603V21.5073H49.0617L51.7662 25.97V21.5073H53.369V27.9596H51.1826L48.2967 23.24V27.9596H45.1331L44.4977 26.5216V26.5216Z" fill="#00ACEC"/>
<path d="M57.3419 31.5835V2.89563H2.87939V25.0788L4.92138 20.5345H8.39091L9.5285 23.2377V20.5345H13.7544L15.0376 23.2109L16.2911 20.5345H31.1896C31.772 20.5345 32.5592 20.7366 32.9108 21.3686V20.5345H36.0299V21.5123C36.4383 20.9668 37.0503 20.5345 38.2447 20.5345H44.6014L45.7673 23.1512V20.5345H49.5293L50.8692 22.8079V20.5345H54.3091V28.9338H50.6076L49.0617 26.4608V28.9338H44.3682L43.6106 27.2937H42.1226L41.423 28.9338H38.4779C37.8363 28.8778 36.3507 28.6173 36.0299 27.6407V28.9338H30.3741V27.094C30.3741 26.8334 30.1409 26.518 29.8201 26.518H29.2081V28.9338H17.1659V27.0355L16.2627 28.9338H13.8136L12.8808 27.0063V28.9338H8.07012L7.42853 27.4386H5.88254L5.21257 28.9338H2.87939V56.0667H57.3419V39.4373C57.0507 39.7551 56.5843 40.0132 55.8847 40.0132H51.3344V39.3801C50.9852 39.7551 50.4904 40.0132 49.702 40.0132H36.8751V38.2586C36.8455 38.0273 36.9627 37.539 36.3211 37.539H35.7967V40.0132H32.3852V37.1627C32.0348 37.7411 31.2785 37.7679 30.7825 37.7971H28.9737V40.0132H24.4258L23.113 38.4303L21.7138 40.0132H13.9888V31.5835H21.831L23.2006 33.108L24.601 31.5835H30.8108C31.2476 31.6102 32.078 31.8124 32.3852 32.2726V31.5835H37.6919C38.1583 31.5835 39.0615 31.7832 39.4415 32.3871V31.5835H46.0881V32.3299C46.4373 31.8708 46.9925 31.5835 47.8365 31.5835H52.0932V32.3031C52.414 31.8416 53.2604 31.5835 53.7564 31.5835H57.3419V31.5835ZM72.3305 30.8504C72.3305 31.9281 68.1737 30.7396 68.1737 33.36C68.1737 34.557 69.1546 35.0988 70.2576 35.0988C71.1275 35.0988 71.795 34.921 72.4538 34.3159L72.6907 34.932H74.787C74.6673 34.7079 74.6488 34.4157 74.6488 34.0869V31.3911C74.6488 30.0151 74.481 29.0033 71.7172 29.0033C69.41 29.0033 68.529 29.718 68.529 30.9381H70.7586C70.8141 30.4437 71.2496 30.3792 71.5729 30.3792C71.8197 30.3792 72.3305 30.434 72.3305 30.8504V30.8504ZM84.3924 34.1551V34.9259H86.4751V27.0039H84.1592V29.7436C83.6669 29.1713 83.1548 28.996 82.4195 28.996C81.0253 28.996 79.9444 30.238 79.9444 32.1533C79.9444 33.7813 80.8365 35.0903 82.5972 35.0903C83.3461 35.0903 83.847 34.8602 84.3924 34.1551V34.1551ZM79.3435 30.9795V29.0288C79.2436 29.0179 79.1424 28.996 79.0413 28.996C78.1406 28.996 77.5705 29.4246 77.2473 30.3281H77.2251V29.1616H75.1189V34.9247H77.436V32.655C77.436 31.4118 77.916 30.971 78.8636 30.971L79.3435 30.9795V30.9795ZM65.5061 30.0176C65.4272 29.1944 64.9028 28.7208 64.0786 28.7208C63.1532 28.7208 62.5955 29.5025 62.5955 31.0306C62.5955 32.1424 62.8411 33.1859 64.1773 33.1859C65.0262 33.1859 65.4272 32.6051 65.5283 31.8453H68.0577C67.8257 33.8909 66.3414 35.1207 64.2254 35.1207C61.5727 35.1207 59.9662 33.5183 59.9662 30.9418C59.9662 28.3786 61.7269 26.7835 63.9688 26.7835C66.4204 26.7835 67.7924 27.9829 68.0046 30.0163H65.5061V30.0176V30.0176Z" fill="#00ACEC"/>
<path d="M28.0411 35.5237H30.0386C30.6938 35.5237 30.927 35.1487 30.927 34.7176C30.927 34.401 30.716 33.9785 30.0448 33.9785H28.0411V35.5237ZM20.2852 33.9639H16.6491V35.1706H20.1828V36.3931H16.6491V37.6692H20.3444L22.1088 35.7246L20.548 33.97L20.2852 33.9639ZM34.9073 35.4385H36.9049C37.5601 35.4385 37.7932 35.1499 37.7932 34.7176C37.7932 34.401 37.5823 33.9785 36.9111 33.9785H34.9073V35.4385V35.4385ZM28.3606 24.3603H30.3582C31.0146 24.3603 31.2465 24.0729 31.2465 23.6407C31.2465 23.3253 31.0356 22.8991 30.3644 22.8991H28.3606V24.3603V24.3603ZM7.63844 25.1311H5.68652L6.64398 22.8772L7.63844 25.1311ZM42.8816 22.8809L41.9266 25.1335H43.8859L42.8816 22.8809Z" fill="white"/>
<path d="M90.7886 36.6914L71.1694 56.052H73.9554L90.7886 39.4409V36.6914Z" fill="#3B4095"/>
<path d="M90.7887 42.1088L76.6614 56.0521H79.4449L90.7887 44.8594V42.1088Z" fill="#00ACEC"/>
<path d="M90.7887 47.5273L82.1482 56.0521H84.9366L90.7887 50.2756V47.5273Z" fill="#6CB35E"/>
<path d="M59.3345 53.0031C59.3353 52.6011 59.4164 52.2031 59.5731 51.832C59.7298 51.4609 59.9591 51.1239 60.2479 50.8403C60.5366 50.5567 60.8792 50.332 61.2559 50.1791C61.6327 50.0262 62.0363 49.9481 62.4437 49.9492C62.8502 49.9489 63.2527 50.0277 63.6283 50.181C64.0039 50.3344 64.3451 50.5593 64.6326 50.843C64.92 51.1266 65.1479 51.4634 65.3033 51.8341C65.4587 52.2047 65.5385 52.602 65.5382 53.0031C65.54 53.4054 65.4613 53.804 65.3066 54.1762C65.1519 54.5484 64.9243 54.8868 64.6368 55.172C64.3493 55.4572 64.0076 55.6836 63.6312 55.8382C63.2549 55.9927 62.8514 56.0725 62.4437 56.0728C62.0352 56.0733 61.6305 55.9942 61.253 55.8401C60.8755 55.686 60.5325 55.4599 60.2436 55.1747C59.9548 54.8895 59.7258 54.5509 59.5698 54.1783C59.4138 53.8057 59.3338 53.4063 59.3345 53.0031V53.0031Z" fill="#00ACEC"/>
<path d="M65.1644 53.003C65.1646 52.6505 65.0943 52.3013 64.9576 51.9756C64.8209 51.6498 64.6205 51.3538 64.3679 51.1046C64.1152 50.8553 63.8152 50.6577 63.485 50.523C63.1549 50.3882 62.8011 50.319 62.4438 50.3193C62.086 50.3184 61.7316 50.3871 61.4007 50.5215C61.0698 50.6559 60.7691 50.8534 60.5157 51.1027C60.2623 51.352 60.0612 51.6482 59.924 51.9743C59.7867 52.3003 59.716 52.6499 59.7158 53.003C59.7158 53.7161 60.0028 54.3999 60.5137 54.9041C61.0247 55.4084 61.7176 55.6916 62.4401 55.6916C63.1626 55.6916 63.8556 55.4084 64.3665 54.9041C64.8774 54.3999 65.1644 53.7161 65.1644 53.003V53.003Z" fill="white"/>
<path d="M63.9862 54.7187H63.484L62.4908 53.1394H61.7135V54.7187H61.2903V51.2947H62.8005C63.0929 51.2947 63.3853 51.3117 63.6457 51.4639C63.906 51.6088 64.0343 51.9132 64.0343 52.2006C64.0343 52.8752 63.5568 53.1236 62.9387 53.1394L63.9862 54.7187V54.7187Z" fill="#00ACEC"/>
<path d="M62.3636 52.8107C62.851 52.8107 63.6061 52.8911 63.6061 52.1921C63.6061 51.6637 63.1347 51.6003 62.7041 51.6003H61.7146V52.8107H62.3636ZM72.3305 32.3797C72.3366 33.4586 72.001 33.7995 71.1879 33.7995C70.7302 33.7995 70.4514 33.601 70.4514 33.3161C70.4526 32.566 71.5741 32.7426 72.3305 32.3797V32.3797ZM84.2369 32.0985C84.2369 32.7682 83.9815 33.4391 83.1783 33.4391C82.422 33.4391 82.2665 32.7365 82.2665 32.1301C82.2665 31.4945 82.4775 30.7664 83.2474 30.7664C84.0148 30.7664 84.2369 31.4592 84.2369 32.0985Z" fill="white"/>
</g>
<defs>
<clipPath id="clip0_2103_249">
<rect width="94" height="59" fill="white"/>
</clipPath>
</defs>
</svg>


